<?xml version="1.0" encoding="utf-8"?>
<!-- Generator: Adobe Illustrator 23.0.3, SVG Export Plug-In . SVG Version: 6.00 Build 0)  -->
<svg version="1.1" id="_x31_0" xmlns="http://www.w3.org/2000/svg" xmlns:xlink="http://www.w3.org/1999/xlink" x="0px" y="0px"
	 viewBox="0 0 512 512" style="enable-background:new 0 0 512 512;" xml:space="preserve">
<style type="text/css">
	.st0{fill:#2EB8BD;}
</style>
<g>
	<path class="st0" d="M512,152.8L512,152.8v-0.2h-28.2h0v-40.9l-18.2-6.6c-32.3-11.8-66.1-17.8-100.7-17.8
		c-34.5,0-68.4,6-100.7,17.8l-8.2,3l-8.2-3c-32.3-11.8-66.1-17.8-100.7-17.8c-34.5,0-68.4,6-100.7,17.8l-18.2,6.6v40.8v0.1H0.3H0.2
		l0,0H0v246c0,5.5,4.5,10,10,10h222.2l6.5,16.1h34.6l6.5-16.1H502c5.5,0,10-4.5,10-10V153.5V152.8z M273.7,359.3
		c0-68.9,0-137.8,0-206.7V131c29.4-10.7,60.3-16.1,91.2-16.1c30.9,0,61.8,5.4,91.2,16.1v21.6v149.3l-0.1,57.5
		c-29.4-10.7-60.3-16.1-91.1-16.1c-28,0-56,4.4-82.8,13.3C279.3,357.4,276.5,358.3,273.7,359.3z M238.3,152.6v147.7l-0.1,59
		c-29.4-10.7-60.3-16.1-91.1-16.1c-28,0-55.9,4.4-82.8,13.2c-2.8,0.9-5.6,1.8-8.4,2.8V152.6V131c29.4-10.7,60.3-16.1,91.2-16.1
		c30.9,0,61.8,5.4,91.2,16.1V152.6z"/>
</g>
</svg>
